# xmcd CD database file
#
# Track frame offsets:
#	150
#	21665
#	41472
#	63652
#	80677
#	98567
#	114877
#
# Disc length: 1742 seconds
#
# Revision: 0
# Processed by: cddbd v1.5.1PL0 Copyright (c) Steve Scherf et al.
# Submitted via: CDex 1.51
#
DISCID=5406cc07
DTITLE=ASIA SunRise - Happy
DYEAR=2004
DGENRE=Indie
TTITLE0=Happy
TTITLE1=Local Power Vibration
TTITLE2=Touch
TTITLE3=星の空
TTITLE4=羽
TTITLE5=Ranyday Jamaica
TTITLE6=歩く人
EXTD=YEAR: 2004
EXTT0=
EXTT1=
EXTT2=
EXTT3=
EXTT4=
EXTT5=
EXTT6=
PLAYORDER=
